<svg width="100" height="27" viewBox="0 0 100 27" fill="none" xmlns="http://www.w3.org/2000/svg">
<g clip-path="url(#clip0)">
<path d="M26.9947 6.65895C26.9632 6.36854 26.7827 6.11151 26.513 5.98563L13.8567 0.0793852C13.6306 -0.0261362 13.3693 -0.0261362 13.1431 0.0793852L0.486896 5.98563C0.217213 6.11151 0.0367559 6.36849 0.00516797 6.65895C0.00448242 6.66501 0 6.7458 0 6.75023V21.094C0 21.439 0.210041 21.7493 0.530402 21.8773L13.1867 26.9398C13.2872 26.9801 13.3936 27.0002 13.5 27.0002C13.6064 27.0002 13.7128 26.9801 13.8133 26.9398L26.4696 21.8773C26.79 21.7493 27 21.439 27 21.094V6.75023C27 6.7458 26.9954 6.66496 26.9947 6.65895ZM13.5 1.77506L24.0334 6.69064L19.9774 8.31307L9.24576 3.7604L13.5 1.77506ZM7.18822 4.72059L17.7533 9.20264L13.5 10.904L2.96662 6.69064L7.18822 4.72059ZM1.6875 7.99645L12.6562 12.3839V24.9102L1.6875 20.5227V7.99645ZM14.3438 24.9103V12.3839L25.3125 7.99645V20.5227L14.3438 24.9103Z" fill="#0A143A"/>
</g>
<path d="M40.2969 17.0703H35.1602L34.1836 20H31.0684L36.3613 5.78125H39.0762L44.3984 20H41.2832L40.2969 17.0703ZM35.9512 14.6973H39.5059L37.7188 9.375L35.9512 14.6973Z" fill="#0A143A"/>
<path d="M55.0625 14.8145C55.0625 16.5072 54.7012 17.8288 53.9785 18.7793C53.2559 19.7233 52.2467 20.1953 50.9512 20.1953C49.8053 20.1953 48.8906 19.7559 48.207 18.877L48.0801 20H45.541V5H48.3633V10.3809C49.0143 9.61914 49.8704 9.23828 50.9316 9.23828C52.2207 9.23828 53.2298 9.71354 53.959 10.6641C54.6947 11.6081 55.0625 12.9395 55.0625 14.6582V14.8145ZM52.2402 14.6094C52.2402 13.5417 52.071 12.7637 51.7324 12.2754C51.3939 11.7806 50.8893 11.5332 50.2188 11.5332C49.3203 11.5332 48.7018 11.901 48.3633 12.6367V16.8066C48.7083 17.5488 49.3333 17.9199 50.2383 17.9199C51.1497 17.9199 51.7487 17.4707 52.0352 16.5723C52.1719 16.1426 52.2402 15.4883 52.2402 14.6094Z" fill="#0A143A"/>
<path d="M56.3711 14.6191C56.3711 13.571 56.5729 12.6367 56.9766 11.8164C57.3802 10.9961 57.9596 10.3613 58.7148 9.91211C59.4766 9.46289 60.3587 9.23828 61.3613 9.23828C62.7871 9.23828 63.9492 9.67448 64.8477 10.5469C65.7526 11.4193 66.2572 12.6042 66.3613 14.1016L66.3809 14.8242C66.3809 16.4453 65.9284 17.7474 65.0234 18.7305C64.1185 19.707 62.9043 20.1953 61.3809 20.1953C59.8574 20.1953 58.64 19.707 57.7285 18.7305C56.8236 17.7539 56.3711 16.4258 56.3711 14.7461V14.6191ZM59.1934 14.8242C59.1934 15.8268 59.3822 16.5951 59.7598 17.1289C60.1374 17.6562 60.6777 17.9199 61.3809 17.9199C62.0645 17.9199 62.5983 17.6595 62.9824 17.1387C63.3665 16.6113 63.5586 15.7715 63.5586 14.6191C63.5586 13.6361 63.3665 12.8743 62.9824 12.334C62.5983 11.7936 62.0579 11.5234 61.3613 11.5234C60.6712 11.5234 60.1374 11.7936 59.7598 12.334C59.3822 12.8678 59.1934 13.6979 59.1934 14.8242Z" fill="#0A143A"/>
<path d="M77.6406 14.8145C77.6406 16.5072 77.2793 17.8288 76.5566 18.7793C75.834 19.7233 74.8249 20.1953 73.5293 20.1953C72.3835 20.1953 71.4688 19.7559 70.7852 18.877L70.6582 20H68.1191V5H70.9414V10.3809C71.5924 9.61914 72.4486 9.23828 73.5098 9.23828C74.7988 9.23828 75.8079 9.71354 76.5371 10.6641C77.2728 11.6081 77.6406 12.9395 77.6406 14.6582V14.8145ZM74.8184 14.6094C74.8184 13.5417 74.6491 12.7637 74.3105 12.2754C73.972 11.7806 73.4674 11.5332 72.7969 11.5332C71.8984 11.5332 71.2799 11.901 70.9414 12.6367V16.8066C71.2865 17.5488 71.9115 17.9199 72.8164 17.9199C73.7279 17.9199 74.3268 17.4707 74.6133 16.5723C74.75 16.1426 74.8184 15.4883 74.8184 14.6094Z" fill="#0A143A"/>
<path d="M85.7168 18.9258C85.0202 19.7721 84.0566 20.1953 82.8262 20.1953C81.6934 20.1953 80.8275 19.8698 80.2285 19.2188C79.6361 18.5677 79.3333 17.6139 79.3203 16.3574V9.43359H82.1426V16.2598C82.1426 17.36 82.6439 17.9102 83.6465 17.9102C84.6035 17.9102 85.2611 17.5781 85.6191 16.9141V9.43359H88.4512V20H85.7949L85.7168 18.9258Z" fill="#0A143A"/>
<path d="M96.3027 17.0801C96.3027 16.735 96.1302 16.4648 95.7852 16.2695C95.4466 16.0677 94.8997 15.8887 94.1445 15.7324C91.6315 15.2051 90.375 14.1374 90.375 12.5293C90.375 11.5918 90.7624 10.8105 91.5371 10.1855C92.3184 9.55404 93.3372 9.23828 94.5938 9.23828C95.9349 9.23828 97.0059 9.55404 97.8066 10.1855C98.6139 10.8171 99.0176 11.6374 99.0176 12.6465H96.1953C96.1953 12.2428 96.0651 11.9108 95.8047 11.6504C95.5443 11.3835 95.1374 11.25 94.584 11.25C94.1087 11.25 93.7409 11.3574 93.4805 11.5723C93.2201 11.7871 93.0898 12.0605 93.0898 12.3926C93.0898 12.7051 93.2363 12.959 93.5293 13.1543C93.8288 13.3431 94.3301 13.5091 95.0332 13.6523C95.7363 13.7891 96.3288 13.9453 96.8105 14.1211C98.3014 14.668 99.0469 15.6152 99.0469 16.9629C99.0469 17.9264 98.6335 18.7077 97.8066 19.3066C96.9798 19.8991 95.9121 20.1953 94.6035 20.1953C93.7181 20.1953 92.9303 20.0391 92.2402 19.7266C91.5566 19.4076 91.0195 18.9746 90.6289 18.4277C90.2383 17.8743 90.043 17.2786 90.043 16.6406H92.7188C92.7448 17.1419 92.9303 17.526 93.2754 17.793C93.6204 18.0599 94.0827 18.1934 94.6621 18.1934C95.2025 18.1934 95.6094 18.0924 95.8828 17.8906C96.1628 17.6823 96.3027 17.4121 96.3027 17.0801Z" fill="#0A143A"/>
<defs>
<clipPath id="clip0">
<rect width="27" height="27" fill="white"/>
</clipPath>
</defs>
</svg>
